# xmcd
#
# Track frame offsets:
#	150
#	11596
#	22442
#	34176
#	45955
#	56042
#	66790
#	78845
#	88508
#	101991
#	111044
#	122017
#	134135
#	144135
#	158671
#	168852
#	178188
#	188792
#
# Disc length: 2669 seconds
#
# Revision: 1
# Processed by: cddbd v1.4PL0 Copyright (c) Steve Scherf et al.
# Submitted via: audiograbber 1.82.01
#
DISCID=f10a6b12
DTITLE=Pat Boone - The Best Of
DYEAR=2000
DGENRE=Oldies
TTITLE0=Speedy Gonzales
TTITLE1=Ain't That A Shame
TTITLE2=I Almost Lost My Mind
TTITLE3=Moody River
TTITLE4=Love Letters In The Sand
TTITLE5=Johnny Will
TTITLE6=April Love
TTITLE7=Bernadine
TTITLE8=I'll Be Home
TTITLE9=Why Baby Why
TTITLE10=Tutti Frutti
TTITLE11=True Love
TTITLE12=Don't Forbid Me
TTITLE13=Tenderly
TTITLE14=Remember You're Mine
TTITLE15=A Wonderful Time Up There
TTITLE16=Stardust
TTITLE17=With The Wind And The Rain In Your Hair
EXTD=
EXTT0=
EXTT1=
EXTT2=
EXTT3=
EXTT4=
EXTT5=
EXTT6=
EXTT7=
EXTT8=
EXTT9=
EXTT10=
EXTT11=
EXTT12=
EXTT13=
EXTT14=
EXTT15=
EXTT16=
EXTT17=
PLAYORDER=
